<svg id="Behance" xmlns="http://www.w3.org/2000/svg" width="52" height="52" viewBox="0 0 52 52">
  <path id="Caminho_6" data-name="Caminho 6" d="M0,26A26,26,0,1,1,26,52,26,26,0,0,1,0,26Z" fill="#1769ff"/>
  <path id="Caminho_7" data-name="Caminho 7" d="M24.71,20.382a4.263,4.263,0,0,0-.786-2.58q-1.309-1.757-4.442-1.8H11.2V32.907h7.723a12.045,12.045,0,0,0,2.421-.227,4.752,4.752,0,0,0,1.936-.849,4.7,4.7,0,0,0,1.213-1.33,4.883,4.883,0,0,0,.765-2.7,4.434,4.434,0,0,0-.667-2.477,3.842,3.842,0,0,0-1.981-1.493,4.106,4.106,0,0,0,1.308-.962A3.731,3.731,0,0,0,24.71,20.382Zm11.556-1.49H28.921v-2.1h7.344Zm-6.488,6.526a3.382,3.382,0,0,1,.884-1.935,2.652,2.652,0,0,1,1.978-.714,2.942,2.942,0,0,1,1.968.672,2.73,2.73,0,0,1,.882,1.977Zm5.841-4.76a5.1,5.1,0,0,1,2.188,1.85,6.04,6.04,0,0,1,1.013,2.585,15.877,15.877,0,0,1,.111,2.482H29.7a2.989,2.989,0,0,0,1.327,2.637,3.4,3.4,0,0,0,1.828.471,2.835,2.835,0,0,0,1.838-.573,2.723,2.723,0,0,0,.683-.861h3.383a4.093,4.093,0,0,1-1.228,2.26,6.207,6.207,0,0,1-4.768,1.823A6.952,6.952,0,0,1,28.3,31.8q-1.94-1.537-1.935-5a6.727,6.727,0,0,1,1.745-4.985,6.167,6.167,0,0,1,4.531-1.734A7.293,7.293,0,0,1,35.618,20.659Zm-21,9.314V25.464h4.22a4.381,4.381,0,0,1,1.714.286,1.813,1.813,0,0,1,1.091,1.815,2.125,2.125,0,0,1-1.127,2.111,4.109,4.109,0,0,1-1.737.3Zm0-11.037v3.73h4.168a3.488,3.488,0,0,0,1.813-.42,1.592,1.592,0,0,0,.7-1.483,1.517,1.517,0,0,0-.92-1.564,6.572,6.572,0,0,0-2.027-.264Z" transform="translate(0.933 1.333)" fill="#fff" fill-rule="evenodd"/>
</svg>
