<svg id="github" xmlns="http://www.w3.org/2000/svg" width="52" height="50.716" viewBox="0 0 52 50.716">
  <path id="Caminho_5" data-name="Caminho 5" d="M26,0a26,26,0,0,0-8.22,50.672c1.3.241,1.776-.564,1.776-1.251,0-.62-.024-2.668-.035-4.841-7.233,1.573-8.76-3.068-8.76-3.068-1.183-3.005-2.887-3.8-2.887-3.8-2.359-1.614.178-1.581.178-1.581a5.465,5.465,0,0,1,3.986,2.679c2.319,3.975,6.082,2.826,7.566,2.161a5.538,5.538,0,0,1,1.651-3.477C15.481,36.834,9.41,34.6,9.41,24.642a10.062,10.062,0,0,1,2.679-6.979,9.342,9.342,0,0,1,.252-6.881s2.183-.7,7.152,2.665a24.662,24.662,0,0,1,13.021,0c4.963-3.364,7.143-2.665,7.143-2.665a9.331,9.331,0,0,1,.255,6.881,10.043,10.043,0,0,1,2.676,6.979c0,9.986-6.082,12.185-11.872,12.829a6.215,6.215,0,0,1,1.764,4.815c0,3.479-.03,6.279-.03,7.135,0,.692.468,1.5,1.786,1.247A26,26,0,0,0,26,0ZM9.738,37.038c-.057.129-.26.168-.446.079s-.294-.261-.233-.39.26-.17.448-.081S9.8,36.908,9.738,37.038Zm1.279,1.141c-.124.115-.366.062-.531-.12a.4.4,0,0,1-.076-.54c.128-.115.363-.061.533.12S11.146,38.063,11.017,38.179Zm.877,1.46c-.159.111-.42.007-.581-.224s-.159-.508,0-.62.418-.011.581.218S12.057,39.526,11.894,39.639Zm1.484,1.691c-.143.157-.446.115-.668-.1s-.291-.507-.148-.664.449-.113.673.1S13.53,41.175,13.378,41.33ZM15.3,41.9c-.063.2-.355.3-.65.21s-.487-.328-.427-.533.355-.3.651-.209S15.357,41.694,15.3,41.9Zm2.182.242c.007.214-.242.392-.552.4s-.562-.167-.566-.378.244-.393.555-.4S17.478,41.93,17.478,42.143Zm2.144-.082c.037.209-.178.424-.485.481s-.581-.074-.62-.282.181-.429.483-.485S19.583,41.848,19.622,42.061Z" fill="#161614"/>
</svg>
