<svg xmlns="http://www.w3.org/2000/svg" width="505.532" height="344" viewBox="0 0 505.532 344">
  <g id="hero-image" transform="translate(0 0)">
    <path id="Caminho_40" data-name="Caminho 40" d="M694.678,503.8a3.251,3.251,0,0,1,3.251,3.251V538.5H760.3a3.251,3.251,0,1,1,0,6.5H697.93V653.778h-6.5V507.048A3.251,3.251,0,0,1,694.678,503.8Z" transform="translate(-387.428 -310.939)" fill="#e6e6e6"/>
    <path id="Caminho_41" data-name="Caminho 41" d="M390.607,742.211l-11.724.324a8.165,8.165,0,0,1-5.016-1.406,3.519,3.519,0,0,1-1.6-3.513l2.307-11.594c.435-2.187,3.115-3.841,6.373-3.931l6.475-.179c3.258-.09,6.025,1.413,6.58,3.573l2.943,11.449a3.52,3.52,0,0,1-1.4,3.6A8.166,8.166,0,0,1,390.607,742.211Z" transform="translate(-256.918 -400.111)" fill="#3f3d56"/>
    <path id="Caminho_42" data-name="Caminho 42" d="M511.237,741.651l-11.724.324a8.165,8.165,0,0,1-5.016-1.406,3.519,3.519,0,0,1-1.6-3.513l2.307-11.594c.435-2.187,3.115-3.841,6.373-3.931l6.475-.179c3.257-.09,6.025,1.413,6.58,3.573l2.943,11.449a3.519,3.519,0,0,1-1.4,3.6,8.165,8.165,0,0,1-4.931,1.681Z" transform="translate(-306.236 -399.882)" fill="#3f3d56"/>
    <path id="Caminho_43" data-name="Caminho 43" d="M333.4,583.246a2.561,2.561,0,0,1,.943-4.911l133.288-3.68a2.56,2.56,0,0,1,2.63,2.488h0a2.563,2.563,0,0,1-2.488,2.63h0l-133.288,3.68a2.545,2.545,0,0,1-1.084-.207Z" transform="translate(-240.418 -339.907)" fill="#ffffff"/>
    <rect id="Retângulo_3" data-name="Retângulo 3" width="38.114" height="128.684" transform="translate(104.068 200.267) rotate(-1.582)" fill="#e6e6e6"/>
    <path id="Caminho_44" data-name="Caminho 44" d="M237.061,333.079l-7.324,19.951.007,90.9,8.924,2.559Z" transform="translate(-93.926 -136.176)" fill="#ccc"/>
    <path id="Caminho_45" data-name="Caminho 45" d="M376.514,457.679c-7.128.2-12.566,12.538-12.435,17.352l.241,8.715,25.809-.713-.241-8.715C389.753,469.505,383.642,457.488,376.514,457.679Z" transform="translate(-253.594 -292.083)" fill="#3f3d56"/>
    <path id="Caminho_46" data-name="Caminho 46" d="M350.221,589.682a5.031,5.031,0,0,1-5.162-4.884l-.392-14.182a5.025,5.025,0,1,1,10.046-.277l.392,14.182A5.031,5.031,0,0,1,350.221,589.682Z" transform="translate(-245.658 -336.146)" fill="#3f3d56"/>
    <path id="Caminho_47" data-name="Caminho 47" d="M193.108,332.76l-.18-9.373,2.458-.061.18,9.343,2.228,136.171-2.459.068" transform="translate(-78.877 -132.189)" fill="#3f3d56"/>
    <path id="Caminho_48" data-name="Caminho 48" d="M392.512,528.2l-44.182,1.22c-4.22-5.146-4.6-27.071,4.2-31.243l3.454-5.864,26.627-1.3,3.112,6.175C390.107,500.916,392.366,522.7,392.512,528.2Z" transform="translate(-245.974 -305.712)" fill="#e6e6e6"/>
    <path id="Caminho_49" data-name="Caminho 49" d="M386.38,527.358l-11.173.309c-2.156.059-3.989-2.738-4.086-6.235s1.579-6.391,3.735-6.451l11.173-.309c2.156-.06,3.989,2.738,4.086,6.235S388.536,527.3,386.38,527.358Z" transform="translate(-256.473 -315.385)" fill="#6c63ff"/>
    <path id="Caminho_50" data-name="Caminho 50" d="M164.44,465.568l-23.031,16.269-4.023,36.681,26.867-8.977Z" transform="translate(-56.169 -190.343)" fill="#e6e6e6"/>
    <rect id="Retângulo_4" data-name="Retângulo 4" width="38.114" height="128.684" transform="translate(177.615 198.692) rotate(-1.582)" fill="#e6e6e6"/>
    <path id="Caminho_51" data-name="Caminho 51" d="M302,333.806l7.839,19.754,2.352,90.866-8.855,2.79Z" transform="translate(-123.468 -136.474)" fill="#ccc"/>
    <ellipse id="Elipse_4" data-name="Elipse 4" cx="4.994" cy="6.696" rx="4.994" ry="6.696" transform="translate(229.775 148.533)" fill="#e6e6e6"/>
    <path id="Caminho_52" data-name="Caminho 52" d="M499.667,455.049c-7.128.2-12.566,12.538-12.435,17.352l.241,8.715,25.809-.713-.241-8.715C512.906,466.874,506.795,454.858,499.667,455.049Z" transform="translate(-303.944 -291.008)" fill="#3f3d56"/>
    <path id="Caminho_53" data-name="Caminho 53" d="M343.442,337.722l-.18-9.373,2.458-.061.18,9.343L348.128,473.8l-2.459.068" transform="translate(-140.339 -134.218)" fill="#3f3d56"/>
    <path id="Caminho_54" data-name="Caminho 54" d="M517.5,525.571l-44.182,1.22c-.77-4.656.226-26.385,4.2-31.243l3.454-5.864,26.627-1.3,3.112,6.175C518.572,495.2,521.323,516.551,517.5,525.571Z" transform="translate(-298.156 -304.637)" fill="#e6e6e6"/>
    <path id="Caminho_55" data-name="Caminho 55" d="M509.6,526.686l-11.173.309c-2.156.06-4-3.177-4.113-7.213s1.552-7.37,3.708-7.429l11.173-.309c2.156-.06,4,3.177,4.113,7.213S511.761,526.626,509.6,526.686Z" transform="translate(-306.84 -314.31)" fill="#6c63ff"/>
    <path id="Caminho_56" data-name="Caminho 56" d="M366.828,449.662l22.265,17.3,2.345,36.827L365.009,493.6Z" transform="translate(-149.23 -183.84)" fill="#e6e6e6"/>
    <path id="Caminho_57" data-name="Caminho 57" d="M423.966,293.92c-23.89,0-51.346-26.511-75.638-13.915-73.549,38.138-63.425-25.68-84.555-49.414l.694-1.391c16,61.018,30.47,158.249,84.18,49.187,13.454-27.32,57.612,14.909,83.6,13.663l.045,1.672Q428.178,293.92,423.966,293.92Z" transform="translate(-212.586 -198.672)" fill="#f2f2f2"/>
    <path id="Caminho_58" data-name="Caminho 58" d="M516.792,340.535c-19.045,14.424-56.938,9.867-68.7,34.575-35.6,74.808-66.064,17.822-97.239,11.66l-.287-1.528c31.207,2.588,64.681-1.428,96.8-11.615,29.028-9.205,54.927-22.9,74.9-39.585l1.046,1.306Q520.151,337.993,516.792,340.535Z" transform="translate(-248.072 -241.536)" fill="#f2f2f2"/>
    <ellipse id="Elipse_5" data-name="Elipse 5" cx="4.994" cy="6.696" rx="4.994" ry="6.696" transform="translate(56.565 82.323)" fill="#e6e6e6"/>
    <ellipse id="Elipse_6" data-name="Elipse 6" cx="4.994" cy="6.696" rx="4.994" ry="6.696" transform="translate(211.449 27.936)" fill="#e6e6e6"/>
    <path id="Caminho_59" data-name="Caminho 59" d="M356.4,382.478c-2.283,1.521-4.62-2.1-2.293-3.553C356.394,377.4,358.731,381.024,356.4,382.478Z" transform="translate(-249.126 -259.736)" fill="#e6e6e6"/>
    <path id="Caminho_60" data-name="Caminho 60" d="M499.4,181.478c-2.283,1.521-4.62-2.1-2.293-3.553C499.394,176.4,501.731,180.024,499.4,181.478Z" transform="translate(-307.59 -177.559)" fill="#e6e6e6"/>
    <path id="Caminho_61" data-name="Caminho 61" d="M405.923,124.429l-1.452-.319.318-1.453-.968-.212L403.5,123.9l-1.452-.318-.212.968,1.453.319-.318,1.452.968.212.319-1.453,1.452.319Z" transform="translate(-164.287 -50.061)" fill="#e6e6e6"/>
    <circle id="Elipse_7" data-name="Elipse 7" cx="6.327" cy="6.327" r="6.327" transform="translate(102.172 13.026)" fill="#ff6584"/>
    <path id="Caminho_62" data-name="Caminho 62" d="M430.4,196.748c-7.128.2-12.566,12.538-12.435,17.352l.241,8.715,25.809-.713-.241-8.715C443.638,208.573,437.527,196.557,430.4,196.748Z" transform="translate(-275.624 -185.404)" fill="#3f3d56"/>
    <path id="Caminho_63" data-name="Caminho 63" d="M452.272,740.926l-11.724.324a8.165,8.165,0,0,1-5.016-1.406,3.519,3.519,0,0,1-1.6-3.513l2.307-11.594c.435-2.187,3.115-3.841,6.373-3.931l6.475-.179c3.258-.09,6.025,1.413,6.58,3.573l2.943,11.449a3.519,3.519,0,0,1-1.4,3.6A8.165,8.165,0,0,1,452.272,740.926Z" transform="translate(-282.129 -399.586)" fill="#3f3d56"/>
    <rect id="Retângulo_5" data-name="Retângulo 5" width="38.114" height="260.12" transform="translate(137.271 67.875) rotate(-1.582)" fill="#e6e6e6"/>
    <path id="Caminho_64" data-name="Caminho 64" d="M270.743,319.425l-.18-9.373,2.458-.061.18,9.343L275.429,455.5l-2.459.068" transform="translate(-110.617 -126.737)" fill="#3f3d56"/>
    <path id="Caminho_65" data-name="Caminho 65" d="M450.634,301.223l-51.624,1.425c-.9-5.441.264-30.829,4.912-36.505l1.274-6.776,35.645-.984,1.865,6.6C447.824,269.342,450.463,294.8,450.634,301.223Z" transform="translate(-267.762 -210.603)" fill="#e6e6e6"/>
    <path id="Caminho_66" data-name="Caminho 66" d="M444.7,245.5l-36.783,1.016c-1.358.037-2.479-.675-2.5-1.592a1.154,1.154,0,0,1,.057-.389l5.714-17.6a2.464,2.464,0,0,1,2.355-1.339l24.394-.674a2.464,2.464,0,0,1,2.426,1.207l6.676,17.26c.341.883-.447,1.8-1.761,2.052a3.594,3.594,0,0,1-.573.062Z" transform="translate(-270.493 -196.922)" fill="#e6e6e6"/>
    <path id="Caminho_67" data-name="Caminho 67" d="M413.242,462.641a4.51,4.51,0,0,1-.935-.541,3.313,3.313,0,0,1-1.406-2.555l-1.337-48.4c-.055-2,1.907-3.689,4.373-3.757l32.929-.909c2.467-.069,4.518,1.507,4.574,3.51l1.337,48.4a3.312,3.312,0,0,1-1.263,2.628,5.029,5.029,0,0,1-3.11,1.129l-32.929.909A5.274,5.274,0,0,1,413.242,462.641Z" transform="translate(-272.191 -271.149)" fill="#3f3d56"/>
    <path id="Caminho_68" data-name="Caminho 68" d="M440.9,246.806l-11.173.309c-2.156.06-3.979-2.376-4.063-5.429s1.6-5.586,3.758-5.645l11.173-.309c2.156-.06,3.979,2.376,4.063,5.429S443.054,246.746,440.9,246.806Z" transform="translate(-278.771 -201.342)" fill="#6c63ff"/>
    <path id="Caminho_69" data-name="Caminho 69" d="M869.262,663.395H856.256V568.882c10.879-.78,19.055-4.111,19.055-8.1,0-4.571-10.719-8.276-23.942-8.276s-23.942,3.705-23.942,8.276c0,4.03,8.335,7.386,19.371,8.124v94.492H833.792a4.729,4.729,0,0,0,0,9.459h35.47a4.729,4.729,0,0,0,0-9.459Z" transform="translate(-443.031 -330.851)" fill="#e6e6e6"/>
    <path id="Caminho_70" data-name="Caminho 70" d="M660.068,469.967l-4.272,4.655L635.806,460.36l6.3-6.871Z" transform="translate(-259.943 -185.405)" fill="#a0616a"/>
    <path id="Caminho_71" data-name="Caminho 71" d="M835.548,669.422a7.875,7.875,0,0,0,2.563,5.5l.188.175,5.6-6.106,8.17-8.905-6.032-5.537-1.089,1.19-.114.122-5.428,2.567-1.15.547-.2.092-.433,4.649v0a7.852,7.852,0,0,0-2.082,5.7Z" transform="translate(-446.347 -372.573)" fill="#2f2e41"/>
    <path id="Caminho_72" data-name="Caminho 72" d="M703.217,543.8l-6.046,1.837-9.961-22.445,8.923-2.71Z" transform="translate(-280.959 -212.793)" fill="#a0616a"/>
    <path id="Caminho_73" data-name="Caminho 73" d="M863.749,746.746l.074.249,19.494-5.922-2.379-7.833-1.54.468-.162.048-7.247-.665-.214-.017-2.742,3.783A7.929,7.929,0,0,0,863.749,746.746Z" transform="translate(-457.74 -404.676)" fill="#2f2e41"/>
    <path id="Path_17" data-name="Path 17" d="M791.73,538.687s-38.6,37.268-14.2,48.8h7.542a49.956,49.956,0,0,1,7.455-14.843c.713-.933,3.382-.743,4.123-1.652,4.526-5.549,9.434-10.315,12.823-10.126l-.811,25.75-1.312,9.185c-.689,4.748,18.756,46.206,18.756,46.206l12.222-4.8s-12.733-34.147-12.883-39.069l10.2-54.128Z" transform="translate(-419.325 -325.203)" fill="#2f2e41"/>
    <path id="Caminho_74" data-name="Caminho 74" d="M801.478,485.921a2.3,2.3,0,0,0,.752.682,5.315,5.315,0,0,0,1.579.586c8.691,1.973,37.081,6.062,44.451,4.111.905-.236,1.5-.569,1.688-1.006.617-1.382.538-7.221.175-14.272-.066-1.321-1.522-2.751-1.61-4.133-.061-1.037,1.246-2.012,1.177-3.066-.481-7.129-1.1-14.394-1.518-18.987-.263-2.952-.442-4.8-.442-4.8l4.483-28.268-.21-.346-.236-.118-14.455-7.155-.787-2.012a3.114,3.114,0,0,0-2.882-1.973l-9.522-.039a3.1,3.1,0,0,0-2.532,1.286l-2.581,3.573L801.95,420.922l.066.2,8,24.358.039,1.9v0l.3,15.264-.827,2.069.932,3.394a15.42,15.42,0,0,1-2.725,6.915c-2.082,2.677-4.732,5.467-5.931,7.733v0C801.141,484.014,800.918,485.1,801.478,485.921Z" transform="translate(-432.292 -270.599)" fill="#6c63ff"/>
    <path id="Path_18" data-name="Path 18" d="M779.991,613.1l2.063,2.607s18.975,13.275,19.626,14.516l3,2.838,7.256-7.756-3.773-4.73a29.623,29.623,0,0,0-11.363-8.7h0l-5.783-5.131Z" transform="translate(-423.637 -353.029)" fill="#2f2e41"/>
    <path id="Caminho_75" data-name="Caminho 75" d="M892.59,522.829l-3.455-33.446-.912-13.765,9.672-1.749s-.383,9.843.884,15.4c1.25,5.48.166,32.83.089,33.562a4.705,4.705,0,1,1-6.277,0Z" transform="translate(-467.886 -298.703)" fill="#a0616a"/>
    <path id="Caminho_76" data-name="Caminho 76" d="M876.128,451.8l2.694,5.765.94,2.008,2.532,13.261,1.264,1.343,1.089,4.334.512-.1,9.229-1.911,2.69-.555a5.113,5.113,0,0,0-.927-6.4c-.184-.166-.337-.328-.332-.481.153-9.224-.411-26.068-5.507-33-1.618-2.2-2.589-4.391-4-5.922,0,0,0-.009-.009-.009l-3.438-5.629-.21-.346-.236-.118Z" transform="translate(-462.941 -278.33)" fill="#6c63ff"/>
    <circle id="Ellipse_5" data-name="Ellipse 5" cx="12.669" cy="12.669" r="12.669" transform="translate(384.666 106.823)" fill="#a0616a"/>
    <path id="Caminho_77" data-name="Caminho 77" d="M853.632,363.734c.371-2.129.66-4.889-.4-7.342-.9-2.065-3.145-4-5.643-3.74a2.6,2.6,0,0,0-.811-2.6,6.83,6.83,0,0,0-2.771-1.3,26.57,26.57,0,0,0-7.29-1.419,9.054,9.054,0,0,0-6.846,2.652l-.037.055-.459,1.1a1.1,1.1,0,0,1-.679.625,1.085,1.085,0,0,1-.918-.112,1,1,0,0,0-1.526.807l-.024.468-.657-.262a1,1,0,0,0-1.359,1.094l.088.556a1.07,1.07,0,0,0-.816.184.978.978,0,0,0-.348,1.1,9.1,9.1,0,0,0,2.532,3.783,7.569,7.569,0,0,0,1.719,1.169q.195.1.4.186a45.076,45.076,0,0,0,15.94,3.611,9.253,9.253,0,0,0-.99,3.176,3.473,3.473,0,0,0,1.486,3.276,4.366,4.366,0,0,0,.712.326,4.7,4.7,0,0,1,.683.316,2.127,2.127,0,0,1-.088,3.691s.943,1.151,1.094,1.132a2.945,2.945,0,0,0,1.552-.918C850.92,372.674,852.755,368.772,853.632,363.734Z" transform="translate(-441.254 -246.968)" fill="#2f2e41"/>
    <path id="Caminho_78" data-name="Caminho 78" d="M954.421,694.524l.551-12.381a39.985,39.985,0,0,1,18.651-4.721c-8.958,7.324-7.838,21.441-13.911,31.289a24.051,24.051,0,0,1-17.637,11.115l-7.5,4.59a40.3,40.3,0,0,1,8.495-32.659,38.931,38.931,0,0,1,7.155-6.648C952.023,689.843,954.421,694.524,954.421,694.524Z" transform="translate(-486.579 -381.924)" fill="#f2f2f2"/>
    <path id="Caminho_79" data-name="Caminho 79" d="M682.718,757.278a.916.916,0,0,1-.918.918H178.1a.918.918,0,0,1,0-1.837H681.8a.916.916,0,0,1,.917.918Z" transform="translate(-177.185 -414.196)" fill="#ccc"/>
    <path id="Caminho_80" data-name="Caminho 80" d="M539.841,584.368a5.031,5.031,0,0,1-5.162-4.884l-.392-14.182a5.025,5.025,0,1,1,10.046-.277l.392,14.182A5.031,5.031,0,0,1,539.841,584.368Z" transform="translate(-323.182 -333.973)" fill="#3f3d56"/>
    <path id="Caminho_81" data-name="Caminho 81" d="M624.726,585.662q-11.45,0-25.1-.865c-47.064-2.989-108.027-13.38-171.658-29.258S305.641,520.191,262.69,500.718c-20.923-9.486-36.981-18.466-47.727-26.689-11.378-8.706-16.355-16.295-14.793-22.554,3.043-12.2,29.99-14.863,52.06-14.954l.008,1.773c-30.308.124-48.188,4.958-50.346,13.61-2.75,11.019,19.678,28.222,61.532,47.2,42.856,19.43,101.446,38.862,164.977,54.716s124.38,26.226,171.342,29.208c45.861,2.913,73.743-1.737,76.493-12.756,2.283-9.149-12.768-22.627-42.38-37.951l.815-1.575c21.516,11.135,46.492,27.106,43.286,39.956-1.562,6.26-9.521,10.62-23.655,12.96A185.279,185.279,0,0,1,624.726,585.662Z" transform="translate(-186.468 -283.433)" fill="#ccc"/>
    <path id="Caminho_82" data-name="Caminho 82" d="M224.459,554.087c-6.057,0-9.995-1.505-11.738-4.5-3.437-5.9,2.319-16.253,17.109-30.77l1.242,1.265c-13.738,13.486-19.711,23.647-16.819,28.612,1.83,3.141,7.276,4.266,15.753,3.254,8.415-1,19.568-4,33.147-8.9,27.957-10.09,63.031-27.108,98.762-47.922s67.836-42.928,90.4-62.27c4.335-3.716,8.269-7.29,11.693-10.624a116.437,116.437,0,0,0,12.4-13.82c5.062-6.873,6.771-12.167,4.941-15.308-3.056-5.246-15.895-4.753-36.153,1.391l-.514-1.7c21.735-6.591,34.587-6.789,38.2-.586,2.245,3.854.547,9.658-5.045,17.252a118.175,118.175,0,0,1-12.591,14.039c-3.451,3.36-7.413,6.959-11.776,10.7-22.647,19.41-54.846,41.59-90.666,62.455s-71,37.934-99.052,48.058c-13.706,4.946-24.99,7.972-33.539,8.992A48.878,48.878,0,0,1,224.459,554.087Z" transform="translate(-191.319 -263.476)" fill="#ccc"/>
    <path id="Caminho_83" data-name="Caminho 83" d="M753.265,545.539c-4.383-.087-27.926-.763-31.787-.6-.218-.765-7.537,8.615-7.715,8.673a1.069,1.069,0,0,0,.358,1.719c.43.261,38.385-.441,38.845-.349a1.056,1.056,0,0,0,.942-.614l.254-.568c.026-.972.345-5.94.059-6.789a1.051,1.051,0,0,0-.955-1.474Z" transform="translate(-396.44 -327.742)" fill="#e6e6e6"/>
    <path id="Caminho_84" data-name="Caminho 84" d="M754.163,559.959c-.223.535-.508,1.208-1.2,1.183l-38.444.431a1.06,1.06,0,0,1-.925-1.557Z" transform="translate(-396.442 -333.9)" opacity="0.17"/>
    <path id="Caminho_85" data-name="Caminho 85" d="M712.118,502.409c-.414-.716-10.692-51.572-11.55-52l-7.017-8.584-.627-.472c-.872-.479-2.964-.155-2.776,1.177h0c1.649,7.9,12.252,52.92,12.485,59.938l1.276,8.941a1.1,1.1,0,0,0,1.359.9,2.118,2.118,0,0,0,1.7-1.229C707.065,510.771,712.6,502.592,712.118,502.409Z" transform="translate(-386.9 -285.324)" fill="#e6e6e6"/>
    <path id="Caminho_86" data-name="Caminho 86" d="M693.555,441.838,706.976,511.1c-.449,1.136-2.549,1.932-3.038.442-.009,0-13.769-68.955-13.783-69C690.009,440.885,692.75,440.832,693.555,441.838Z" transform="translate(-386.906 -285.335)" opacity="0.17"/>
    <path id="Caminho_87" data-name="Caminho 87" d="M519.409,269.531l6.816,9.5,7.651,36.336-3.556,3.1Z" transform="translate(-212.355 -110.195)" fill="#6c63ff"/>
    <path id="Caminho_88" data-name="Caminho 88" d="M773.344,551.155l1.886.077a7.4,7.4,0,0,1,.272-1.632c.284-1.348.538-2.95-.638-2.944-.8-.077-1.07.934-1.212,2.034A15.552,15.552,0,0,1,773.344,551.155Z" transform="translate(-420.919 -328.459)" fill="#2f2e41"/>
    <path id="Caminho_89" data-name="Caminho 89" d="M755.044,548.309l1.271.047.615.024c-.012-.674.3-2.063-.461-2.406a.947.947,0,0,0-.384-.077c-.715-.041-.928.5-.993,1.129-.041.378-.024.78-.036,1.094A1.892,1.892,0,0,1,755.044,548.309Z" transform="translate(-413.437 -328.15)" fill="#2f2e41"/>
    <path id="Caminho_90" data-name="Caminho 90" d="M748.674,548.05l1.277.053.609.024c-.012-.774.4-2.465-.845-2.489-1.147-.065-1,1.4-1.029,2.223C748.686,547.925,748.68,547.99,748.674,548.05Z" transform="translate(-410.833 -328.044)" fill="#2f2e41"/>
    <path id="Caminho_91" data-name="Caminho 91" d="M742.3,547.8l1.271.047.615.024c-.012-.768.4-2.459-.845-2.483-1.147-.071-1,1.389-1.029,2.223C742.316,547.675,742.31,547.74,742.3,547.8Z" transform="translate(-408.229 -327.941)" fill="#2f2e41"/>
    <path id="Caminho_92" data-name="Caminho 92" d="M735.934,547.539l1.277.053.609.024c-.012-.774.4-2.459-.845-2.489-1.147-.065-1,1.4-1.029,2.223C735.946,547.415,735.94,547.48,735.934,547.539Z" transform="translate(-405.624 -327.835)" fill="#2f2e41"/>
    <path id="Caminho_93" data-name="Caminho 93" d="M729.564,547.289l1.271.047.615.024c-.012-.709.331-2.193-.579-2.447h-.006a.865.865,0,0,0-.26-.035.889.889,0,0,0-.319.03h-.006c-.792.207-.68,1.448-.7,2.193C729.576,547.164,729.57,547.229,729.564,547.289Z" transform="translate(-403.02 -327.732)" fill="#2f2e41"/>
    <path id="Caminho_94" data-name="Caminho 94" d="M766.914,546.609l1.886.077c0-.071,0-.148.006-.236a7.885,7.885,0,0,0,.024-1.354c-.065-.5-.278-.887-.875-.9-.609-.036-.851.355-.946.857a1.827,1.827,0,0,0-.047.26v.006C766.914,545.782,766.944,546.278,766.914,546.609Z" transform="translate(-418.29 -327.455)" fill="#2f2e41"/>
    <path id="Caminho_95" data-name="Caminho 95" d="M760.544,546.353l1.886.077a13.764,13.764,0,0,0,.035-1.525c-.053-.52-.26-.946-.881-.958-.627-.041-.869.384-.964.91C760.532,545.366,760.579,545.975,760.544,546.353Z" transform="translate(-415.686 -327.352)" fill="#2f2e41"/>
    <path id="Caminho_96" data-name="Caminho 96" d="M754.174,546.1l.562.024,1.324.053c-.006-.284.047-.7.053-1.105a2.508,2.508,0,0,0-.012-.366c-.047-.55-.242-1.005-.887-1.017-.656-.036-.887.42-.97.975C754.162,545.16,754.209,545.733,754.174,546.1Z" transform="translate(-413.082 -327.247)" fill="#2f2e41"/>
    <path id="Caminho_97" data-name="Caminho 97" d="M766.974,552.349l1.886.071c-.006-.769.4-2.459-.845-2.483C766.773,549.86,767.045,551.575,766.974,552.349Z" transform="translate(-418.315 -329.801)" fill="#2f2e41"/>
    <path id="Caminho_98" data-name="Caminho 98" d="M760.6,552.089l1.886.077c-.006-.774.4-2.465-.845-2.489C760.4,549.607,760.675,551.321,760.6,552.089Z" transform="translate(-415.711 -329.695)" fill="#2f2e41"/>
    <path id="Caminho_99" data-name="Caminho 99" d="M754.234,551.838l1.886.071c-.006-.55.2-1.567-.136-2.11a.78.78,0,0,0-.709-.372.83.83,0,0,0-.55.136C754.122,549.958,754.293,551.211,754.234,551.838Z" transform="translate(-413.106 -329.592)" fill="#2f2e41"/>
    <path id="Caminho_100" data-name="Caminho 100" d="M747.864,551.578l1.886.077c-.006-.55.2-1.561-.13-2.11a.782.782,0,0,0-.715-.378.821.821,0,0,0-.55.136C747.752,549.71,747.923,550.957,747.864,551.578Z" transform="translate(-410.502 -329.485)" fill="#2f2e41"/>
    <path id="Caminho_101" data-name="Caminho 101" d="M741.494,551.328l1.886.071c-.006-.55.2-1.567-.136-2.11a.78.78,0,0,0-.709-.372.831.831,0,0,0-.55.136C741.382,549.448,741.553,550.7,741.494,551.328Z" transform="translate(-407.898 -329.383)" fill="#2f2e41"/>
    <path id="Caminho_102" data-name="Caminho 102" d="M735.124,551.068l1.886.077c-.006-.55.2-1.561-.13-2.11a.776.776,0,0,0-.715-.378.821.821,0,0,0-.55.136C735.012,549.2,735.183,550.447,735.124,551.068Z" transform="translate(-405.293 -329.276)" fill="#2f2e41"/>
    <path id="Caminho_103" data-name="Caminho 103" d="M728.754,550.818l1.886.071c-.006-.55.2-1.561-.136-2.11a.773.773,0,0,0-.709-.372.83.83,0,0,0-.55.136C728.642,548.944,728.813,550.191,728.754,550.818Z" transform="translate(-402.689 -329.175)" fill="#2f2e41"/>
    <path id="Caminho_104" data-name="Caminho 104" d="M758.672,510.089l14.373-30.4,5.434-12.68-8.541-4.863s-2.909,9.411-5.949,14.228c-3,4.753-11.066,30.91-11.236,31.625a4.705,4.705,0,1,0,5.919,2.088Z" transform="translate(-411.31 -293.911)" fill="#a0616a"/>
    <path id="Caminho_105" data-name="Caminho 105" d="M764.56,467.161l10.87,6.558,2.465-3.726,1.642-.847,6.8-11.668,6.008-6.121,7.938-25.372-10.328,1.549-.013,0c-1.84.976-3.486,2.72-5.742,4.258-7.109,4.845-13.239,20.544-16.16,29.3-.048.144-.245.244-.473.342a5.116,5.116,0,0,0-3,5.725Z" transform="translate(-417.286 -279.126)" fill="#6c63ff"/>
  </g>
</svg>
