<svg id="linkedin" xmlns="http://www.w3.org/2000/svg" width="52" height="52" viewBox="0 0 52 52">
  <path id="Caminho_3" data-name="Caminho 3" d="M26,0A26,26,0,1,1,0,26,26,26,0,0,1,26,0Z" fill="#0e76a8"/>
  <path id="Caminho_4" data-name="Caminho 4" d="M81.959,95.554h4.869V79.327H81.959Zm18.967-16.789a7.308,7.308,0,0,0-5.977,2.767V79.273H90.063V95.554h4.886v-8.8a3.865,3.865,0,0,1,3.84-3.676c2.135,0,2.662,1.815,2.662,3.63v8.848h4.869V86.342C106.319,79.944,103.291,78.765,100.926,78.765ZM84.371,77.7a2.437,2.437,0,1,0-2.438-2.437A2.438,2.438,0,0,0,84.371,77.7Z" transform="translate(-67.308 -59.83)" fill="#fff"/>
</svg>
