<svg id="whatsapp" xmlns="http://www.w3.org/2000/svg" width="52" height="52" viewBox="0 0 52 52">
  <path id="Caminho_1" data-name="Caminho 1" d="M26,52A26,26,0,1,0,0,26,26,26,0,0,0,26,52Z" fill="#25d366"/>
  <path id="Caminho_2" data-name="Caminho 2" d="M25.99,39.732h-.006A15.448,15.448,0,0,1,18.6,37.85L10.4,40l2.193-8.011a15.461,15.461,0,1,1,13.4,7.743Zm-7.015-4.681.469.279a12.831,12.831,0,0,0,6.54,1.791h.005A12.851,12.851,0,1,0,15.1,31.1l.306.486-1.3,4.742ZM33.25,27.6a1.249,1.249,0,0,1,.529.348,3.231,3.231,0,0,1-.225,1.837,3.979,3.979,0,0,1-2.608,1.837,5.3,5.3,0,0,1-2.433-.153,22.171,22.171,0,0,1-2.2-.814,17.017,17.017,0,0,1-6.532-5.737c-.032-.046-.055-.079-.068-.1l0,0a7.506,7.506,0,0,1-1.574-3.992,4.278,4.278,0,0,1,1.276-3.141l.076-.081a1.419,1.419,0,0,1,1.03-.483c.258,0,.515,0,.74.014.028,0,.057,0,.086,0,.225,0,.506,0,.783.662.106.256.262.635.427,1.036.332.809.7,1.7.764,1.833a.711.711,0,0,1,.032.677l-.054.11a2.194,2.194,0,0,1-.332.534c-.064.075-.131.157-.2.238-.133.162-.266.324-.381.439-.193.193-.395.4-.169.788a11.643,11.643,0,0,0,2.149,2.676,9.981,9.981,0,0,0,2.851,1.8c.106.046.192.083.255.115.386.193.611.161.837-.1s.966-1.128,1.223-1.515.515-.322.869-.193,2.253,1.064,2.64,1.257Z" transform="translate(0.867 0.733)" fill="#fdfdfd" fill-rule="evenodd"/>
</svg>
